<svg width="226" height="199" viewBox="0 0 226 199" fill="none" xmlns="http://www.w3.org/2000/svg">
<path d="M17.2691 140.131H36.0725C43.0035 140.001 50.5763 141.824 50.5763 150.352C50.5763 153.998 48.4584 156.992 45.3139 158.555C49.6135 159.792 52.2447 163.567 52.2447 168.189C52.2447 177.889 45.1855 180.884 36.586 180.884H17.2691V140.131ZM27.7297 156.211H35.8158C37.6127 156.211 40.1156 155.235 40.1156 152.305C40.1156 149.376 38.062 148.399 35.8158 148.399H27.7297V156.211ZM27.7297 172.421H36.1367C39.4738 172.421 41.7843 171.249 41.7843 167.864C41.7843 164.283 39.2813 163.046 36.1367 163.046H27.7297V172.421Z" fill="#0E4D2F"/>
<path d="M77.0817 139.286C89.7244 139.286 96.8477 148.725 96.8477 160.508C96.8477 172.291 89.7244 181.731 77.0817 181.731C64.439 181.731 57.2515 172.291 57.2515 160.508C57.2515 148.725 64.439 139.286 77.0817 139.286ZM77.0817 172.617C83.82 172.617 86.387 166.563 86.387 160.508C86.387 154.454 83.82 148.4 77.0817 148.4C70.3433 148.4 67.7763 154.454 67.7763 160.508C67.7763 166.563 70.3433 172.617 77.0817 172.617Z" fill="#0E4D2F"/>
<path d="M111.862 159.532L98.7704 140.197H111.092L117.831 152.891L124.954 140.197H136.891L123.927 159.532L138.11 180.949H125.403L117.895 167.344L109.68 180.949H97.6154L111.862 159.532Z" fill="#0E4D2F"/>
<path d="M17.8748 132V111.525H25.0703C27.4688 111.525 29.4383 111.954 30.9788 112.812C32.5388 113.65 33.6893 114.84 34.4303 116.38C35.1908 117.901 35.571 119.695 35.571 121.762C35.571 123.81 35.1908 125.604 34.4303 127.144C33.6893 128.685 32.5388 129.884 30.9788 130.742C29.4383 131.581 27.4688 132 25.0703 132H17.8748ZM21.9698 128.49H24.8363C26.4938 128.49 27.7905 128.227 28.7265 127.7C29.682 127.154 30.3645 126.384 30.774 125.389C31.1835 124.375 31.3883 123.166 31.3883 121.762C31.3883 120.358 31.1835 119.149 30.774 118.135C30.3645 117.121 29.682 116.351 28.7265 115.825C27.7905 115.279 26.4938 115.006 24.8363 115.006H21.9698V128.49ZM47.9312 132.351C45.9032 132.351 44.1092 131.902 42.5492 131.005C41.0087 130.108 39.7997 128.87 38.9222 127.291C38.0642 125.692 37.6352 123.849 37.6352 121.762C37.6352 119.676 38.0642 117.843 38.9222 116.263C39.7997 114.664 41.0087 113.416 42.5492 112.519C44.1092 111.622 45.9032 111.174 47.9312 111.174C49.9787 111.174 51.7727 111.622 53.3132 112.519C54.8537 113.416 56.0529 114.664 56.9109 116.263C57.7884 117.843 58.2272 119.676 58.2272 121.762C58.2272 123.849 57.7884 125.692 56.9109 127.291C56.0529 128.87 54.8537 130.108 53.3132 131.005C51.7727 131.902 49.9787 132.351 47.9312 132.351ZM47.9604 128.665C49.2084 128.665 50.2809 128.392 51.1779 127.846C52.0944 127.281 52.8062 126.481 53.3132 125.448C53.8202 124.414 54.0737 123.186 54.0737 121.762C54.0737 120.339 53.8202 119.11 53.3132 118.077C52.8062 117.043 52.0944 116.254 51.1779 115.708C50.2809 115.142 49.2084 114.859 47.9604 114.859C46.7124 114.859 45.6302 115.142 44.7137 115.708C43.7972 116.254 43.0854 117.043 42.5784 118.077C42.0714 119.11 41.8179 120.339 41.8179 121.762C41.8179 123.186 42.0714 124.414 42.5784 125.448C43.0854 126.481 43.7972 127.281 44.7137 127.846C45.6302 128.392 46.7124 128.665 47.9604 128.665ZM70.1251 132.351C68.0581 132.351 66.2738 131.912 64.7723 131.035C63.2903 130.138 62.1496 128.899 61.3501 127.32C60.5506 125.721 60.1508 123.878 60.1508 121.792C60.1508 119.705 60.5506 117.862 61.3501 116.263C62.1496 114.664 63.2903 113.416 64.7723 112.519C66.2738 111.622 68.0581 111.174 70.1251 111.174C72.6211 111.174 74.6686 111.798 76.2676 113.046C77.8666 114.294 78.8513 116.049 79.2218 118.311H74.7173C74.4833 117.219 73.9666 116.38 73.1671 115.795C72.3871 115.191 71.3536 114.889 70.0666 114.889C68.8576 114.889 67.8241 115.171 66.9661 115.737C66.1081 116.283 65.4451 117.073 64.9771 118.106C64.5286 119.14 64.3043 120.368 64.3043 121.792C64.3043 123.215 64.5286 124.444 64.9771 125.477C65.4451 126.491 66.1081 127.281 66.9661 127.846C67.8241 128.392 68.8576 128.665 70.0666 128.665C71.3536 128.665 72.3871 128.392 73.1671 127.846C73.9471 127.281 74.4541 126.481 74.6881 125.448H79.1926C78.8221 127.612 77.8373 129.309 76.2383 130.537C74.6588 131.746 72.6211 132.351 70.1251 132.351ZM85.8572 132V114.83H79.8902V111.525H95.89V114.83H89.9522V132H85.8572ZM106.252 132.351C104.224 132.351 102.43 131.902 100.87 131.005C99.3293 130.108 98.1203 128.87 97.2428 127.291C96.3848 125.692 95.9558 123.849 95.9558 121.762C95.9558 119.676 96.3848 117.843 97.2428 116.263C98.1203 114.664 99.3293 113.416 100.87 112.519C102.43 111.622 104.224 111.174 106.252 111.174C108.299 111.174 110.093 111.622 111.634 112.519C113.174 113.416 114.374 114.664 115.232 116.263C116.109 117.843 116.548 119.676 116.548 121.762C116.548 123.849 116.109 125.692 115.232 127.291C114.374 128.87 113.174 130.108 111.634 131.005C110.093 131.902 108.299 132.351 106.252 132.351ZM106.281 128.665C107.529 128.665 108.602 128.392 109.499 127.846C110.415 127.281 111.127 126.481 111.634 125.448C112.141 124.414 112.394 123.186 112.394 121.762C112.394 120.339 112.141 119.11 111.634 118.077C111.127 117.043 110.415 116.254 109.499 115.708C108.602 115.142 107.529 114.859 106.281 114.859C105.033 114.859 103.951 115.142 103.034 115.708C102.118 116.254 101.406 117.043 100.899 118.077C100.392 119.11 100.139 120.339 100.139 121.762C100.139 123.186 100.392 124.414 100.899 125.448C101.406 126.481 102.118 127.281 103.034 127.846C103.951 128.392 105.033 128.665 106.281 128.665ZM119.027 132V111.525H127.714C129.372 111.525 130.737 111.808 131.809 112.373C132.901 112.919 133.711 113.68 134.237 114.655C134.783 115.61 135.056 116.692 135.056 117.901C135.056 118.837 134.851 119.705 134.442 120.505C134.032 121.285 133.486 121.957 132.804 122.523C133.545 123.03 134.11 123.683 134.5 124.483C134.91 125.282 135.134 126.199 135.173 127.232L135.407 132H131.4L131.078 127.232C131.039 126.55 130.903 125.994 130.669 125.565C130.454 125.116 130.113 124.785 129.645 124.57C129.177 124.356 128.543 124.249 127.744 124.249H123.122V132H119.027ZM123.122 120.943H127.451C128.66 120.943 129.538 120.67 130.084 120.124C130.63 119.578 130.903 118.837 130.903 117.901C130.903 116.946 130.63 116.205 130.084 115.678C129.538 115.132 128.66 114.859 127.451 114.859H123.122V120.943Z" fill="#0E4D2F"/>
<path d="M203.722 142.387L164.667 177.388C157.729 183.507 156.52 179.938 156.783 177.388C156.914 140.359 157.098 76.4958 156.783 69.2732C156.467 62.0506 160.594 57.8898 162.696 56.7122C178.465 45.4595 195.443 32.5284 201.751 28.132C208.059 23.7357 209.373 28.132 209.241 30.8798V128.649C209.241 135.871 205.562 140.556 203.722 142.387Z" fill="#0E4D2F"/>
<path d="M157.219 53.831L200.625 22.1417C202.125 21.0167 202.5 19.1417 201.375 18.0167C200.684 17.3261 199.697 17.1971 198.75 17.2667C173.901 17.2667 96.4406 17.2781 88.1862 17.2781C82.716 17.2781 78.4681 20.0461 75.6226 21.4922C59.5861 29.6417 25.0863 47.6417 18.6649 52.4263C16.4468 54.0789 16.8362 57.3918 19.8362 57.7641L25.0861 57.7641L142.692 57.7641C149.916 57.7641 155.387 55.142 157.219 53.831Z" fill="#0E4D2F"/>
</svg>
